<svg xmlns="http://www.w3.org/2000/svg" viewBox="0 0 471.01 223.36"><defs><style>.cls-1{fill:#fff;}.cls-2{fill:#231f20;}</style></defs><g id="Layer_1" data-name="Layer 1"><path d="M115.36,7.83c58.15-.49,108,44.91,108.18,106.26.24,60.64-49.17,107.91-107.7,107.73A107.52,107.52,0,0,1,8.23,114C8.11,53.27,58.69,7.15,115.36,7.83Zm42,58.89c0,.23.08.81.16,1.37,1.09,8.2,2.35,16.38,3.19,24.6l.34,3c10.33,3.84,23.15,8.65,33.41,12.69a9.65,9.65,0,0,1,4.46,3.35c2.18,3.43.35,6.81-4.49,8.82-25.17,10.43-50.32,20.91-75.57,31.13a11.23,11.23,0,0,1-7.73-.13c-11.88-4.9-23.57-10.28-35.36-15.39-12.67-5.49-25.4-10.87-38.09-16.31-2.37-1-4-2.58-4-5.4s1.55-4.43,3.87-5.56c.51-.25,1.07-.41,1.6-.62,9-3.46,20.28-7.88,29.27-11.21l.18-2.58c.32-4.6.88-9.19,1.53-13.76.71-5,1.64-10,2.45-14.87C67,64.27,61.63,63,56.39,61.18s-10.54-4-15.84-6.11C9.85,91.61,12,150.58,52,186c39.84,35.27,100.58,32.75,136.91-8.77,33.27-38,28.56-91.66,2.92-121.59ZM178.44,115c-2.58-1.18-4.7-2.31-6.93-3.14-17.78-6.59-35.6-13.07-53.36-19.72a8.74,8.74,0,0,0-6.81.1q-22,8.89-44,17.61c-4,1.61-8.09,3.14-12.4,4.8,19.39,8.47,38.37,16.72,57.31,25.06a7.39,7.39,0,0,0,6.52.1c10.2-4.44,20.51-8.63,30.79-12.88C159,123,168.56,119,178.44,115ZM87.19,55.82a225.8,225.8,0,0,0,55.47.11c-1.19-3.56-2.11-6.88-3.42-10-3.63-8.76-7.7-17.25-15.56-23.21-5.73-4.35-11.8-4.5-17.43,0C95.64,31.16,91.4,43.31,87.19,55.82Zm61.26,35.33-2.83-23.54c-20.76,1.72-41,2-61.67-.29l-3.33,25.1,1.85-.69c9.81-3.85,19.65-7.64,29.43-11.6a8.76,8.76,0,0,1,6.92,0C128.66,83.91,137.77,87.21,148.45,91.15Zm-9.84-69c1.09,1.36,1.86,2.29,2.6,3.24,6.29,8,9.27,17.58,12.49,27,.6,1.77,1.36,2.08,2.89,1.76,2.62-.55,5.3-.91,7.86-1.67,6.2-1.82,12.34-3.83,19.17-6A91.85,91.85,0,0,0,138.61,22.16ZM91,22.48A89.72,89.72,0,0,0,49.05,46a91.43,91.43,0,0,0,26.49,7.9C79.46,42.85,82.53,31.81,91,22.48Z" transform="translate(-8.23 -7.82)"/><path class="cls-1" d="M157.31,66.72l34.5-11.07c25.64,29.93,30.35,83.57-2.92,121.59C152.56,218.76,91.82,221.28,52,186,12,150.58,9.85,91.61,40.55,55.07c5.3,2.07,10.5,4.31,15.84,6.11S67,64.27,72.5,65.83c-.81,4.86-1.74,9.85-2.45,14.87-.65,4.57-1.21,9.16-1.53,13.76a3.34,3.34,0,0,1-2.6,3.47c-9,3.33-17.9,6.86-26.85,10.32-.53.21-1.09.37-1.6.62-2.32,1.13-3.88,2.76-3.87,5.56s1.66,4.38,4,5.4c12.69,5.44,25.42,10.82,38.09,16.31,11.79,5.11,23.48,10.49,35.36,15.39a11.23,11.23,0,0,0,7.73.13c25.25-10.22,50.4-20.7,75.57-31.13,4.84-2,6.67-5.39,4.49-8.82a9.65,9.65,0,0,0-4.46-3.35c-10.26-4-20.58-7.94-30.91-11.78-2-.73-2.62-1.7-2.84-3.89-.84-8.22-2.1-16.4-3.19-24.6C157.39,67.53,157.34,67,157.31,66.72Zm-42,112.09a28.27,28.27,0,0,0,4.1-1q38.19-16.08,76.34-32.23c4.27-1.81,4.78-6.52,1.05-9.32-3.15-2.37-6.42-1.85-9.81-.41q-33.51,14.25-67,28.43a10.23,10.23,0,0,1-8.62,0c-7.71-3.42-15.48-6.7-23.23-10.06Q66.84,145,45.6,135.71c-3.31-1.45-6.67-2-9.51.45a8.23,8.23,0,0,0-2.67,5.33c0,1.28,1.71,3.26,3.12,3.87Q73.71,161.6,111,177.54A36.93,36.93,0,0,0,115.29,178.81Zm.54,26.15c1.56-.57,3.13-1,4.58-1.7q24.66-11.77,49.29-23.65c5.43-2.63,10.77-5.44,16.1-8.29a5.3,5.3,0,0,0,2.08-7c-1.43-2.37-3.5-2.35-5.74-1.2-.51.26-1.06.46-1.58.69-20.75,9.06-41.48,18.15-62.27,27.11a6,6,0,0,1-4.2,0c-4.7-1.92-9.29-4.14-13.93-6.22q-24.42-10.94-48.87-21.85c-3.38-1.5-5.8-.66-7.09,2.12s-.38,5,3,6.64q32.36,16.05,64.73,32A32.52,32.52,0,0,0,115.83,205Z" transform="translate(-8.23 -7.82)"/><path class="cls-1" d="M178.44,115c-9.88,4.07-19.41,8-28.93,11.93-10.28,4.25-20.59,8.44-30.79,12.88a7.39,7.39,0,0,1-6.52-.1c-18.94-8.34-37.92-16.59-57.31-25.06,4.31-1.66,8.37-3.19,12.4-4.8q22-8.76,44.05-17.61a8.74,8.74,0,0,1,6.81-.1c17.76,6.65,35.58,13.13,53.36,19.72C173.74,112.65,175.86,113.78,178.44,115Z" transform="translate(-8.23 -7.82)"/><path class="cls-1" d="M87.19,55.82c4.21-12.51,8.45-24.66,19.06-33.14,5.63-4.51,11.7-4.36,17.43,0,7.86,6,11.93,14.45,15.56,23.21,1.31,3.17,2.23,6.49,3.42,10A225.8,225.8,0,0,1,87.19,55.82Z" transform="translate(-8.23 -7.82)"/><path class="cls-1" d="M149.24,91.44c-10.68-3.94-20.58-7.53-30.42-11.29a8.76,8.76,0,0,0-6.92,0c-9.78,4-19.62,7.75-29.43,11.6L80,92.66c1.36-8.72,2.65-16.93,4-25.34,20.69,2.28,40.91,2,61.67.29C146.8,75.41,148,83.13,149.24,91.44Z" transform="translate(-8.23 -7.82)"/><path class="cls-1" d="M138.61,22.16a91.85,91.85,0,0,1,45,24.36c-6.83,2.14-13,4.15-19.17,6-2.56.76-5.24,1.12-7.86,1.67-1.53.32-2.29,0-2.89-1.76-3.22-9.42-6.2-19-12.49-27C140.47,24.45,139.7,23.52,138.61,22.16Z" transform="translate(-8.23 -7.82)"/><path class="cls-1" d="M91,22.48c-8.46,9.33-11.53,20.37-15.45,31.4A91.43,91.43,0,0,1,49.05,46,89.72,89.72,0,0,1,91,22.48Z" transform="translate(-8.23 -7.82)"/><path d="M115.29,178.81a36.93,36.93,0,0,1-4.27-1.27q-37.27-16-74.48-32.18c-1.41-.61-3.16-2.59-3.12-3.87a8.23,8.23,0,0,1,2.67-5.33c2.84-2.44,6.2-1.9,9.51-.45q21.23,9.3,42.49,18.48c7.75,3.36,15.52,6.64,23.23,10.06a10.23,10.23,0,0,0,8.62,0q33.5-14.25,67-28.43c3.39-1.44,6.66-2,9.81.41,3.73,2.8,3.22,7.51-1.05,9.32q-38.16,16.16-76.34,32.23A28.27,28.27,0,0,1,115.29,178.81Z" transform="translate(-8.23 -7.82)"/><path d="M115.83,205a32.52,32.52,0,0,1-3.91-1.32q-32.39-16-64.73-32c-3.37-1.67-4.29-3.83-3-6.64s3.71-3.62,7.09-2.12q24.46,10.86,48.87,21.85c4.64,2.08,9.23,4.3,13.93,6.22a6,6,0,0,0,4.2,0c20.79-9,41.52-18.05,62.27-27.11.52-.23,1.07-.43,1.58-.69,2.24-1.15,4.31-1.17,5.74,1.2a5.3,5.3,0,0,1-2.08,7c-5.33,2.85-10.67,5.66-16.1,8.29q-24.6,11.91-49.29,23.65C119,204,117.39,204.39,115.83,205Z" transform="translate(-8.23 -7.82)"/></g><g id="Layer_3" data-name="Layer 3"><path class="cls-2" d="M266.93,102.12,253.11,48.64h-.41q.18,2.09.39,5.64t.39,7.67q.2,4.11.19,7.92v32.25H237.5V27.87h24.3l14.1,52.72h.37l13.81-52.72h24.36v74.25H297.66V69.57c0-2.34,0-4.85.12-7.55s.17-5.23.27-7.61.21-4.28.31-5.66h-.42l-13.63,53.37Z" transform="translate(-8.23 -7.82)"/><path class="cls-2" d="M319.71,44.58h19l8.88,33c.12.47.24,1.06.37,1.75s.23,1.43.32,2.21.15,1.54.19,2.29h.37c.15-1.39.33-2.6.53-3.64s.39-1.87.57-2.51l9.11-33.11h18.44l-20.71,61.19a51.16,51.16,0,0,1-5.56,11.76,21.14,21.14,0,0,1-7.81,7.16,24.82,24.82,0,0,1-11.53,2.41,27.61,27.61,0,0,1-4.28-.28c-1.18-.19-2.22-.38-3.12-.58V110.65c.68.13,1.51.27,2.5.4a22,22,0,0,0,3.09.21,8.28,8.28,0,0,0,4.88-1.32,10.27,10.27,0,0,0,3.07-3.48,29.81,29.81,0,0,0,2.08-4.65l.19-.51Z" transform="translate(-8.23 -7.82)"/><path class="cls-2" d="M277.61,190.12H237.5V115.87h40.11V132H255.75v11.68H276v16.1H255.75v14h21.86Z" transform="translate(-8.23 -7.82)"/><path class="cls-2" d="M312,131.57q9.95,0,15.53,5.4t5.59,15.42v37.73H320.63l-3.47-7.62h-.37a26,26,0,0,1-4.55,4.95,15,15,0,0,1-5.33,2.79,26,26,0,0,1-7.35.89,16.3,16.3,0,0,1-8.13-2,14.1,14.1,0,0,1-5.69-6.14,23.13,23.13,0,0,1-2.08-10.41q0-9.26,5.82-13.71t16.87-5l8.74-.31v-.81q0-3.85-1.74-5.48a6.47,6.47,0,0,0-4.64-1.63,23.49,23.49,0,0,0-6.91,1.19,54.14,54.14,0,0,0-7.65,3.08l-5.22-13.1a38.34,38.34,0,0,1,10.26-3.86A57.34,57.34,0,0,1,312,131.57Zm3.15,32.85-4.16.2c-3.33.14-5.66.77-7,1.91a6,6,0,0,0-2,4.85,5.85,5.85,0,0,0,1.43,4.34,5.2,5.2,0,0,0,3.79,1.4,7.73,7.73,0,0,0,5.61-2.29,7.92,7.92,0,0,0,2.34-5.94Z" transform="translate(-8.23 -7.82)"/><path class="cls-2" d="M375.16,131.57a22.49,22.49,0,0,1,3.1.22c1.08.16,1.88.28,2.4.38L379,150.91a15.5,15.5,0,0,0-2.26-.43,32.11,32.11,0,0,0-3.88-.18,20,20,0,0,0-3.65.36,10,10,0,0,0-3.68,1.5,8.32,8.32,0,0,0-2.84,3.45,14.52,14.52,0,0,0-1.11,6.22v28.29H343.55V132.58H357l2.82,9.19h.88a20.86,20.86,0,0,1,3.67-5.15,18,18,0,0,1,5-3.68A12.82,12.82,0,0,1,375.16,131.57Z" transform="translate(-8.23 -7.82)"/><path class="cls-2" d="M411.72,175.44a17,17,0,0,0,4.48-.56,42.35,42.35,0,0,0,4.25-1.42v14.47a35.63,35.63,0,0,1-6.26,2.31,32.93,32.93,0,0,1-8.44.89,21.58,21.58,0,0,1-9-1.75,12.4,12.4,0,0,1-6-6.09q-2.14-4.35-2.15-12.12V147.46h-6.33v-8.07l8-6.25L395,121.05h11.83v11.53h12.84v14.88H406.82v22.39a6,6,0,0,0,1.29,4.19A4.65,4.65,0,0,0,411.72,175.44Z" transform="translate(-8.23 -7.82)"/><path class="cls-2" d="M445.77,111.1v11.22q0,6.41-.25,10.74t-.49,6.63h.84a16.72,16.72,0,0,1,3.88-4.77,13.79,13.79,0,0,1,4.8-2.57,20.15,20.15,0,0,1,5.73-.78,19.84,19.84,0,0,1,9.36,2.18,15.92,15.92,0,0,1,6.68,6.83q2.49,4.65,2.5,12.11v37.43H460.65V158.73c0-3.82-.5-6.71-1.52-8.65a5,5,0,0,0-4.71-2.92,6.69,6.69,0,0,0-5.18,2.05,12.22,12.22,0,0,0-2.68,6,50.5,50.5,0,0,0-.79,9.63v25.29H427.71v-79Z" transform="translate(-8.23 -7.82)"/><path class="cls-2" d="M404,218.66a3.29,3.29,0,0,1,1.11-2.84,4.44,4.44,0,0,1,2.7-.82,4.16,4.16,0,0,1,2.58.82,4.17,4.17,0,0,1,0,5.62,4.07,4.07,0,0,1-2.58.85,4.33,4.33,0,0,1-2.7-.85A3.31,3.31,0,0,1,404,218.66Z" transform="translate(-8.23 -7.82)"/><path class="cls-2" d="M424.61,199.86a8.46,8.46,0,0,1,6,2,7.55,7.55,0,0,1,2.17,5.78v14.15h-4.85L426.59,219h-.14a10.21,10.21,0,0,1-1.76,1.86,6.11,6.11,0,0,1-2.07,1,10.21,10.21,0,0,1-2.85.34,6.55,6.55,0,0,1-3.15-.76,5.41,5.41,0,0,1-2.2-2.31,8.36,8.36,0,0,1-.8-3.9,6,6,0,0,1,2.25-5.14,11.8,11.8,0,0,1,6.53-1.89l3.39-.11v-.31a2.68,2.68,0,0,0-.67-2.05,2.57,2.57,0,0,0-1.8-.61,9.64,9.64,0,0,0-2.68.44,21.81,21.81,0,0,0-3,1.16l-2-4.92a15.39,15.39,0,0,1,4-1.44A22.93,22.93,0,0,1,424.61,199.86Zm1.21,12.32-1.61.08a4.7,4.7,0,0,0-2.71.71,2.22,2.22,0,0,0-.78,1.82,2.14,2.14,0,0,0,.56,1.63,2,2,0,0,0,1.46.52,3.05,3.05,0,0,0,2.18-.85,3,3,0,0,0,.9-2.23Z" transform="translate(-8.23 -7.82)"/><path class="cls-2" d="M449.2,199.86a6,6,0,0,1,5.28,2.87q1.92,2.86,1.92,8.25a17.13,17.13,0,0,1-1,6.18,8.25,8.25,0,0,1-2.64,3.77,6.09,6.09,0,0,1-3.8,1.27,6.89,6.89,0,0,1-2.43-.38,5.48,5.48,0,0,1-1.65-1,7.89,7.89,0,0,1-1.1-1.16h-.21c.06.5.11,1,.15,1.6s.06,1.24.06,2v7.89h-7V200.24h5.69l1,2.74h.32a8.16,8.16,0,0,1,1.22-1.55,5.36,5.36,0,0,1,1.75-1.14A6.16,6.16,0,0,1,449.2,199.86Zm-2.63,5.85a2.37,2.37,0,0,0-1.61.51,2.93,2.93,0,0,0-.85,1.55,12.54,12.54,0,0,0-.3,2.58v.59a14.58,14.58,0,0,0,.25,2.89,3.5,3.5,0,0,0,.86,1.77,2.31,2.31,0,0,0,1.69.6,2.11,2.11,0,0,0,1.46-.53,3.34,3.34,0,0,0,.9-1.7,12.65,12.65,0,0,0,.3-3.06,8.45,8.45,0,0,0-.69-4A2.19,2.19,0,0,0,446.57,205.71Z" transform="translate(-8.23 -7.82)"/><path class="cls-2" d="M472,199.86a6,6,0,0,1,5.28,2.87q1.92,2.86,1.92,8.25a17.13,17.13,0,0,1-1,6.18,8.25,8.25,0,0,1-2.64,3.77,6.09,6.09,0,0,1-3.8,1.27,6.93,6.93,0,0,1-2.43-.38,5.3,5.3,0,0,1-1.64-1,7,7,0,0,1-1.1-1.16h-.22c.06.5.11,1,.15,1.6s.07,1.24.07,2v7.89h-7V200.24h5.69l1,2.74h.33a8.11,8.11,0,0,1,1.21-1.55,5.36,5.36,0,0,1,1.75-1.14A6.16,6.16,0,0,1,472,199.86Zm-2.63,5.85a2.39,2.39,0,0,0-1.61.51,2.93,2.93,0,0,0-.85,1.55,11.94,11.94,0,0,0-.29,2.58v.59a13.86,13.86,0,0,0,.25,2.89,3.35,3.35,0,0,0,.86,1.77,2.27,2.27,0,0,0,1.68.6,2.16,2.16,0,0,0,1.47-.53,3.41,3.41,0,0,0,.89-1.7,12.58,12.58,0,0,0,.31-3.06,8.45,8.45,0,0,0-.69-4A2.21,2.21,0,0,0,469.41,205.71Z" transform="translate(-8.23 -7.82)"/></g></svg>