<svg id="Layer_1" data-name="Layer 1" xmlns="http://www.w3.org/2000/svg" viewBox="0 0 215.31 213.99"><defs><style>.cls-1{fill:#fff;}</style></defs><path d="M115.36,7.83c58.15-.49,108,44.91,108.18,106.26.24,60.64-49.17,107.91-107.7,107.73A107.52,107.52,0,0,1,8.23,114C8.11,53.27,58.69,7.15,115.36,7.83Zm42,58.89c0,.23.08.81.16,1.37,1.09,8.2,2.35,16.38,3.19,24.6l.34,3c10.33,3.84,23.15,8.65,33.41,12.69a9.65,9.65,0,0,1,4.46,3.35c2.18,3.43.35,6.81-4.49,8.82-25.17,10.43-50.32,20.91-75.57,31.13a11.23,11.23,0,0,1-7.73-.13c-11.88-4.9-23.57-10.28-35.36-15.39-12.67-5.49-25.4-10.87-38.09-16.31-2.37-1-4-2.58-4-5.4s1.55-4.43,3.87-5.56c.51-.25,1.07-.41,1.6-.62,9-3.46,20.28-7.88,29.27-11.21l.18-2.58c.32-4.6.88-9.19,1.53-13.76.71-5,1.64-10,2.45-14.87C67,64.27,61.63,63,56.39,61.18s-10.54-4-15.84-6.11C9.85,91.61,12,150.58,52,186c39.84,35.27,100.58,32.75,136.91-8.77,33.27-38,28.56-91.66,2.92-121.59ZM178.44,115c-2.58-1.18-4.7-2.31-6.93-3.14-17.78-6.59-35.6-13.07-53.36-19.72a8.74,8.74,0,0,0-6.81.1q-22,8.89-44,17.61c-4,1.61-8.09,3.14-12.4,4.8,19.39,8.47,38.37,16.72,57.31,25.06a7.39,7.39,0,0,0,6.52.1c10.2-4.44,20.51-8.63,30.79-12.88C159,123,168.56,119,178.44,115ZM87.19,55.82a225.8,225.8,0,0,0,55.47.11c-1.19-3.56-2.11-6.88-3.42-10-3.63-8.76-7.7-17.25-15.56-23.21-5.73-4.35-11.8-4.5-17.43,0C95.64,31.16,91.4,43.31,87.19,55.82Zm61.26,35.33-2.83-23.54c-20.76,1.72-41,2-61.67-.29l-3.33,25.1,1.85-.69c9.81-3.85,19.65-7.64,29.43-11.6a8.76,8.76,0,0,1,6.92,0C128.66,83.91,137.77,87.21,148.45,91.15Zm-9.84-69c1.09,1.36,1.86,2.29,2.6,3.24,6.29,8,9.27,17.58,12.49,27,.6,1.77,1.36,2.08,2.89,1.76,2.62-.55,5.3-.91,7.86-1.67,6.2-1.82,12.34-3.83,19.17-6A91.85,91.85,0,0,0,138.61,22.16ZM91,22.48A89.72,89.72,0,0,0,49.05,46a91.43,91.43,0,0,0,26.49,7.9C79.46,42.85,82.53,31.81,91,22.48Z" transform="translate(-8.23 -7.82)"/><path class="cls-1" d="M157.31,66.72l34.5-11.07c25.64,29.93,30.35,83.57-2.92,121.59C152.56,218.76,91.82,221.28,52,186,12,150.58,9.85,91.61,40.55,55.07c5.3,2.07,10.5,4.31,15.84,6.11S67,64.27,72.5,65.83c-.81,4.86-1.74,9.85-2.45,14.87-.65,4.57-1.21,9.16-1.53,13.76a3.34,3.34,0,0,1-2.6,3.47c-9,3.33-17.9,6.86-26.85,10.32-.53.21-1.09.37-1.6.62-2.32,1.13-3.88,2.76-3.87,5.56s1.66,4.38,4,5.4c12.69,5.44,25.42,10.82,38.09,16.31,11.79,5.11,23.48,10.49,35.36,15.39a11.23,11.23,0,0,0,7.73.13c25.25-10.22,50.4-20.7,75.57-31.13,4.84-2,6.67-5.39,4.49-8.82a9.65,9.65,0,0,0-4.46-3.35c-10.26-4-20.58-7.94-30.91-11.78-2-.73-2.62-1.7-2.84-3.89-.84-8.22-2.1-16.4-3.19-24.6C157.39,67.53,157.34,67,157.31,66.72Zm-42,112.09a28.27,28.27,0,0,0,4.1-1q38.19-16.08,76.34-32.23c4.27-1.81,4.78-6.52,1.05-9.32-3.15-2.37-6.42-1.85-9.81-.41q-33.51,14.25-67,28.43a10.23,10.23,0,0,1-8.62,0c-7.71-3.42-15.48-6.7-23.23-10.06Q66.84,145,45.6,135.71c-3.31-1.45-6.67-2-9.51.45a8.23,8.23,0,0,0-2.67,5.33c0,1.28,1.71,3.26,3.12,3.87Q73.71,161.6,111,177.54A36.93,36.93,0,0,0,115.29,178.81Zm.54,26.15c1.56-.57,3.13-1,4.58-1.7q24.66-11.77,49.29-23.65c5.43-2.63,10.77-5.44,16.1-8.29a5.3,5.3,0,0,0,2.08-7c-1.43-2.37-3.5-2.35-5.74-1.2-.51.26-1.06.46-1.58.69-20.75,9.06-41.48,18.15-62.27,27.11a6,6,0,0,1-4.2,0c-4.7-1.92-9.29-4.14-13.93-6.22q-24.42-10.94-48.87-21.85c-3.38-1.5-5.8-.66-7.09,2.12s-.38,5,3,6.64q32.36,16.05,64.73,32A32.52,32.52,0,0,0,115.83,205Z" transform="translate(-8.23 -7.82)"/><path class="cls-1" d="M178.44,115c-9.88,4.07-19.41,8-28.93,11.93-10.28,4.25-20.59,8.44-30.79,12.88a7.39,7.39,0,0,1-6.52-.1c-18.94-8.34-37.92-16.59-57.31-25.06,4.31-1.66,8.37-3.19,12.4-4.8q22-8.76,44.05-17.61a8.74,8.74,0,0,1,6.81-.1c17.76,6.65,35.58,13.13,53.36,19.72C173.74,112.65,175.86,113.78,178.44,115Z" transform="translate(-8.23 -7.82)"/><path class="cls-1" d="M87.19,55.82c4.21-12.51,8.45-24.66,19.06-33.14,5.63-4.51,11.7-4.36,17.43,0,7.86,6,11.93,14.45,15.56,23.21,1.31,3.17,2.23,6.49,3.42,10A225.8,225.8,0,0,1,87.19,55.82Z" transform="translate(-8.23 -7.82)"/><path class="cls-1" d="M149.24,91.44c-10.68-3.94-20.58-7.53-30.42-11.29a8.76,8.76,0,0,0-6.92,0c-9.78,4-19.62,7.75-29.43,11.6L80,92.66c1.36-8.72,2.65-16.93,4-25.34,20.69,2.28,40.91,2,61.67.29C146.8,75.41,148,83.13,149.24,91.44Z" transform="translate(-8.23 -7.82)"/><path class="cls-1" d="M138.61,22.16a91.85,91.85,0,0,1,45,24.36c-6.83,2.14-13,4.15-19.17,6-2.56.76-5.24,1.12-7.86,1.67-1.53.32-2.29,0-2.89-1.76-3.22-9.42-6.2-19-12.49-27C140.47,24.45,139.7,23.52,138.61,22.16Z" transform="translate(-8.23 -7.82)"/><path class="cls-1" d="M91,22.48c-8.46,9.33-11.53,20.37-15.45,31.4A91.43,91.43,0,0,1,49.05,46,89.72,89.72,0,0,1,91,22.48Z" transform="translate(-8.23 -7.82)"/><path d="M115.29,178.81a36.93,36.93,0,0,1-4.27-1.27q-37.27-16-74.48-32.18c-1.41-.61-3.16-2.59-3.12-3.87a8.23,8.23,0,0,1,2.67-5.33c2.84-2.44,6.2-1.9,9.51-.45q21.23,9.3,42.49,18.48c7.75,3.36,15.52,6.64,23.23,10.06a10.23,10.23,0,0,0,8.62,0q33.5-14.25,67-28.43c3.39-1.44,6.66-2,9.81.41,3.73,2.8,3.22,7.51-1.05,9.32q-38.16,16.16-76.34,32.23A28.27,28.27,0,0,1,115.29,178.81Z" transform="translate(-8.23 -7.82)"/><path d="M115.83,205a32.52,32.52,0,0,1-3.91-1.32q-32.39-16-64.73-32c-3.37-1.67-4.29-3.83-3-6.64s3.71-3.62,7.09-2.12q24.46,10.86,48.87,21.85c4.64,2.08,9.23,4.3,13.93,6.22a6,6,0,0,0,4.2,0c20.79-9,41.52-18.05,62.27-27.11.52-.23,1.07-.43,1.58-.69,2.24-1.15,4.31-1.17,5.74,1.2a5.3,5.3,0,0,1-2.08,7c-5.33,2.85-10.67,5.66-16.1,8.29q-24.6,11.91-49.29,23.65C119,204,117.39,204.39,115.83,205Z" transform="translate(-8.23 -7.82)"/></svg>