<svg id="Layer_3" data-name="Layer 3" xmlns="http://www.w3.org/2000/svg" viewBox="0 0 325.47 325.56"><defs><style>.cls-1{fill:none;stroke:#000;stroke-miterlimit:10;stroke-width:26px;}.cls-2{fill:#fff;}</style></defs><path class="cls-1" d="M300,150.69c0,85-70.12,149-149.43,149.31C65.36,300.34.64,229.38.53,150.45S65.09.78,149,.44C232.68.1,300.48,68.16,300,150.69ZM149.7,285.78c74.45-.09,134.88-59.3,136.24-132.51,1.53-82.33-65.36-138.11-133.81-138.76C76,13.78,15.41,73.51,14.66,150,14,221.7,73.11,286,149.7,285.78Z" transform="translate(12.47 12.56)"/><path d="M149.7,285.78C73.11,286,14,221.7,14.66,150,15.41,73.51,76,13.78,152.13,14.51c68.45.65,135.34,56.43,133.81,138.76C284.58,226.48,224.15,285.69,149.7,285.78ZM146.29,65.5c-5.63,2.68-11.23,5.41-16.85,8.11L40,116.66c-1.31.63-2.6,1.19-2.59,3s1.28,2.24,2.49,2.86q18.66,9.51,37.32,19,35.17,17.85,70.34,35.68a5.23,5.23,0,0,0,5.42.14c4.21-2.31,8.5-4.46,12.78-6.64l94.81-48.26c1.21-.61,2.52-1.06,2.55-2.81s-1.31-2.38-2.61-3q-16.47-7.87-32.95-15.75-37-17.76-74-35.53m-1.15,154.72c3.6-1.77,7.22-3.52,10.76-5.4q48.26-25.65,96.46-51.39a7.33,7.33,0,0,0,2.52-2.14c1.7-2.36.13-3.65-1.6-4.56-6.09-3.18-12.16-6.42-18.23-9.64a4.76,4.76,0,0,0-4.72.05q-13.81,7.17-27.66,14.28c-18.22,9.37-36.46,18.69-54.65,28.12a9.67,9.67,0,0,1-9.73,0Q103.85,168.14,62,147.06a4.77,4.77,0,0,0-4.71,0Q48,152,38.62,156.8a3.37,3.37,0,0,0-2.19,3.14c0,1.57.91,2.41,2.24,3.1Q93.32,191.42,148,219.85m1.4,36.15a.28.28,0,0,0,.18,0c2.47-1,5-.29,7.22-1.49q31.73-17.26,63.39-34.63c11.7-6.39,23.42-12.75,35.06-19.24a5.43,5.43,0,0,0,2.24-3c.44-1.53-.83-2.38-2.14-3a92.69,92.69,0,0,1-9.29-5c-3.84-2.53-7-2.06-11,.16-18.05,10-36.32,19.59-54.55,29.26-8.35,4.44-16.78,8.72-25.17,13.08-3.52,1.83-6.78,1.65-10.38-.26C117.3,217.25,89.62,202.78,62,188.23a4.69,4.69,0,0,0-4.85-.1c-4,2.17-8.13,4.23-12.22,6.32-1.39.71-3,1.56-2.53,3.27a5.53,5.53,0,0,0,2.53,3.05c20.23,11.09,40.55,22,60.79,33.11,12.88,7.06,25.65,14.32,38.5,21.45C145.84,256.23,147.49,255.25,149.35,256Z" transform="translate(12.47 12.56)"/><path class="cls-2" d="M148.06,64.78a5.85,5.85,0,0,1,4,0c.53.2,1.05.4,1.54.64q37,17.75,74,35.53,16.47,7.91,32.95,15.75c1.3.62,2.64,1.15,2.61,3s-1.34,2.2-2.55,2.81l-94.81,48.26c-4.28,2.18-8.57,4.33-12.78,6.64a5.23,5.23,0,0,1-5.42-.14q-35.13-17.89-70.34-35.68-18.68-9.48-37.32-19c-1.21-.62-2.48-1.1-2.49-2.86s1.28-2.4,2.59-3l89.43-43c5.62-2.7,11.22-5.43,16.85-8.11C146.87,65.23,147.46,65,148.06,64.78Z" transform="translate(12.47 12.56)"/><path class="cls-2" d="M151.38,220.52a2.85,2.85,0,0,1-2.11-.06c-.45-.19-.9-.39-1.32-.61Q93.31,191.44,38.67,163c-1.33-.69-2.24-1.53-2.24-3.1a3.37,3.37,0,0,1,2.19-3.14Q48,152,57.3,147.05a4.77,4.77,0,0,1,4.71,0q41.79,21.18,83.57,42.38a9.67,9.67,0,0,0,9.73,0C173.5,180,191.74,170.7,210,161.33q13.85-7.12,27.66-14.28a4.76,4.76,0,0,1,4.72-.05c6.07,3.22,12.14,6.46,18.23,9.64,1.74.91,3.32,2.21,1.57,4.61a7.13,7.13,0,0,1-2.44,2.06q-48.21,25.78-96.51,51.42c-3.54,1.88-7.16,3.63-10.76,5.4Z" transform="translate(12.47 12.56)"/><path class="cls-2" d="M144.2,255.33c-12.85-7.13-25.62-14.39-38.5-21.45-20.24-11.09-40.56-22-60.79-33.11a5.53,5.53,0,0,1-2.53-3.05c-.44-1.71,1.14-2.56,2.53-3.27,4.09-2.09,8.18-4.15,12.22-6.32a4.69,4.69,0,0,1,4.85.1c27.64,14.55,55.32,29,82.92,43.64,3.6,1.91,6.86,2.09,10.38.26,8.39-4.36,16.82-8.64,25.17-13.08,18.23-9.67,36.5-19.27,54.55-29.26,4-2.22,7.17-2.69,11-.16,3.48,1.8,6.16,3.36,9.29,5,1.31.67,2.86,1.62,2.42,3.15a5.69,5.69,0,0,1-2.52,2.91c-11.64,6.49-23.36,12.85-35.06,19.24q-31.68,17.33-63.39,34.63l-2.81,1.42a8.58,8.58,0,0,1-6.68.46Z" transform="translate(12.47 12.56)"/></svg>